<svg width="45" height="45" viewBox="0 0 45 45" fill="none" xmlns="http://www.w3.org/2000/svg">
<rect width="45" height="45" rx="22.5" fill="#A0AEC0"/>
<path fill-rule="evenodd" clip-rule="evenodd" d="M14.3333 14.9283C14.3333 10.7561 17.7646 7.375 21.9987 7.375C26.2328 7.375 29.6666 10.7561 29.6666 14.9283C29.6666 19.103 26.2328 22.484 21.9987 22.484C17.7646 22.484 14.3333 19.103 14.3333 14.9283ZM22.0546 38.25C27.1168 38.25 31.698 36.253 35 33.0403V30.7612C35 28.0053 32.673 25.7686 29.8 25.7686H14.2C11.327 25.7686 9 28.0053 9 30.7612V32.9255C12.3098 36.2031 16.9352 38.25 22.0546 38.25Z" fill="white"/>
</svg>
